MoBL_ARMS_shoulder_elvation_states	
version=1	
nRows=293	
nColumns=2	
inDegrees=yes	
	
# SIMM Motion File Header:	
name MoBL_ARMS_shoulder_elvation_states	
datacolumns 2	
datarows 293	
otherdata 1	
range 3.745402663 4.412058066	
endheader	
time	shoulder_elv
3.745402663	18.79659855
3.747528638	18.90411395
3.749654614	19.01053508
3.751780589	19.11585116
3.754414386	19.24479032
3.756531274	19.34718262
3.758648161	19.44847022
3.760765049	19.54864293
3.763424393	19.67290446
3.765528574	19.76996718
3.767632756	19.86592024
3.769736937	19.96075394
3.772429058	20.08045306
3.774522664	20.17226349
3.77661627	20.26295855
3.778709876	20.35252904
3.781430605	20.46724925
3.783514203	20.55381061
3.785597801	20.63925174
3.787681398	20.72356387
3.790429152	20.83302482
3.792503846	20.9143632
3.79457854	20.99457662
3.796653234	21.07365674
3.799425008	21.17753903
3.801491823	21.25367526
3.803558639	21.32868196
3.806050808	21.41761186
3.808262957	21.4951656
3.810475106	21.57140739
3.812687255	21.64634158
3.814899404	21.71995739
3.817111554	21.79225915
3.819323703	21.86323638
3.821535852	21.93289341
3.823748001	22.00121998
3.825960151	22.06822053
3.8281723	22.13388494
3.830384449	22.19821779
3.832596598	22.26120908
3.834808747	22.32286355
3.837020897	22.38317128
3.839233046	22.44213724
3.841445195	22.49975154
3.843657344	22.55601938
3.845869493	22.61093088
3.848081643	22.66449153
3.850293792	22.71669139
3.852505941	22.7675363
3.85471809	22.81701621
3.856930239	22.86513735
3.859142389	22.91188952
3.861354538	22.95727938
3.863566687	23.00129654
3.865778836	23.04394814
3.867990986	23.08522352
3.870203135	23.12513036
3.872415284	23.16365773
3.874627433	23.20081385
3.876839582	23.23658745
3.879051732	23.2709874
3.881263881	23.304002
3.88347603	23.33564082
3.885688179	23.36589169
3.887900328	23.39476493
3.890112478	23.42224786
3.892324627	23.44835157
3.894536776	23.47306282
3.89652594	23.49410419
3.898515104	23.51402
3.900922507	23.53662467
3.903329909	23.55758122
3.905378656	23.57412334
3.907427403	23.58946984
3.909476151	23.603626
3.912177456	23.62046526
3.914223608	23.63184272
3.916269761	23.64202682
3.918746248	23.65276322
3.92096975	23.66091372
3.923193253	23.66766217
3.925416755	23.67300035
3.927640258	23.67693714
3.92986376	23.67946322
3.932087262	23.68058889
3.934310765	23.68030358
3.936534267	23.67861915
3.938528733	23.6759079
3.940523198	23.6720705
3.942948208	23.66588044
3.945373218	23.65802461
3.947378572	23.65026377
3.949383926	23.64136597
3.95184402	23.62889095
3.954304114	23.61470523
3.956232921	23.60238037
3.958161728	23.58900635
3.960737329	23.56950528
3.96331293	23.54813372
3.965165094	23.531603
3.967017258	23.51410805
3.969750247	23.48652558
3.9720011	23.46223182
3.974251954	23.43651026
3.976502808	23.40936861
3.978753662	23.38080124
3.981004515	23.35081798
3.983255369	23.31941106
3.985506223	23.28659302
3.987487048	23.25653623
3.989467873	23.22538857
3.991926257	23.18520864
3.994384641	23.14335073
3.996368967	23.10833575
3.998353293	23.07223197
4.000859302	23.02507557
4.003365311	22.97618636
4.005268491	22.93789496
4.007171671	22.89860871
4.009813067	22.84243052
4.012172979	22.79062093
4.014532892	22.73728065
4.016504965	22.69154263
4.018477038	22.64473942
4.020965515	22.58417055
4.023453991	22.52191446
4.025415129	22.47167129
4.027376268	22.42038361
4.029920007	22.35231416
4.032463745	22.28249715
4.03435073	22.22958592
4.036237715	22.17571643
4.038907161	22.09788367
4.041243627	22.02819624
4.043580093	21.95705923
4.045916559	21.88446795
4.047867763	21.82274366
4.049818967	21.76001058
4.052343617	21.67735503
4.054868266	21.59302259
4.056832356	21.5262648
4.058796445	21.45849696
4.061365403	21.3683461
4.063934361	21.27647977
4.065811573	21.20827561
4.067688785	21.13916019
4.070404693	21.0375651
4.072761632	20.94786542
4.075118572	20.85675258
4.077475512	20.76422308
4.079415489	20.68701257
4.081355465	20.60884914
4.083924187	20.50389946
4.086492909	20.39729446
4.088444078	20.315223
4.090395246	20.23220279
4.09301934	20.11906726
4.095643435	20.00423196
4.097496665	19.92211791
4.099349896	19.83916206
4.102155551	19.71198538
4.104546954	19.60208009
4.106938356	19.49080125
4.109059536	19.39094554
4.111180716	19.29002038
4.113301896	19.18802437
4.115921012	19.06062174
4.118076534	18.95455724
4.120232055	18.84741014
4.122387577	18.73917971
4.124543099	18.62987622
4.127312575	18.48786804
4.12931756	18.38396847
4.131322544	18.27915165
4.133970999	18.13930422
4.136323562	18.01375595
4.138676124	17.88697623
4.141028686	17.75896313
4.143008122	17.65031349
4.144987557	17.54080179
4.147564378	17.39696415
4.150141199	17.25168775
4.152149694	17.13746815
4.154158189	17.02238543
4.156773824	16.87123716
4.159389459	16.71864833
4.161312159	16.60557858
4.163234859	16.49174102
4.166003382	16.32649374
4.168404234	16.18192642
4.170805086	16.03620015
4.173205938	15.88931619
4.175220798	15.76517064
4.177235658	15.64022344
4.17982209	15.47867458
4.182408522	15.31583131
4.184436456	15.18726175
4.18646439	15.05791042
4.189100683	14.8886054
4.191736976	14.71800786
4.193679502	14.59149393
4.195622028	14.46429172
4.198412098	14.28040649
4.200833639	14.11968759
4.20325518	13.95794536
4.205676721	13.79518305
4.207714302	13.65745754
4.209751883	13.51902705
4.21235777	13.34098054
4.214963657	13.16181363
4.21701372	13.02009316
4.219063784	12.87769713
4.221718925	12.69229119
4.224374065	12.50578748
4.226338863	12.36708741
4.228303662	12.22780339
4.231105393	12.02820399
4.233504876	11.85635171
4.235904359	11.68368344
4.238303842	11.51021058
4.240703324	11.33596148
4.243102807	11.16094009
4.245164385	11.00997304
4.247225963	10.85845894
4.249840136	10.66557145
4.252454308	10.47184604
4.254590682	10.31292964
4.256727056	10.153479
4.259321098	9.959178998
4.26191514	9.764134299
4.264004596	9.606512155
4.266094053	9.448432687
4.268749324	9.246915189
4.271404595	9.044707649
4.27348858	8.885547662
4.275572565	8.725990034
4.278263561	8.5194
4.280954557	8.312200114
4.283016966	8.153013855
4.285079374	7.993497956
4.287827022	7.780503489
4.29057467	7.566983265
4.292613293	7.408250311
4.294651917	7.24925744
4.297650154	7.014991653
4.299996372	6.831333762
4.302342589	6.647408233
4.304688807	6.463229168
4.307035024	6.27882702
4.309381242	6.094216664
4.311727459	5.909428482
4.314073676	5.724478376
4.316952656	5.497352682
4.319048345	5.331914875
4.321144035	5.166412778
4.323836925	4.95367365
4.326529816	4.740893499
4.328693248	4.569935871
4.330856681	4.398997166
4.333552335	4.186053471
4.33624799	3.973207837
4.338560482	3.790714964
4.340872973	3.608350212
4.343185465	3.426130641
4.345497957	3.2440887
4.348581688	3.001649567
4.35054261	2.847703549
4.352503532	2.693939882
4.355768132	2.438411074
4.358682649	2.210823101
4.360592367	2.062004248
4.362502086	1.913440642
4.365777312	1.659300844
4.368201699	1.471748781
4.370626086	1.284722194
4.373050473	1.098246956
4.37547486	0.912366908
4.377899247	0.727104398
4.380323634	0.542508279
4.382748021	0.358598741
4.385172408	0.175424807
4.387596795	-0.006990888
4.389676417	-0.162823946
4.39175604	-0.318049893
4.393835662	-0.472638372
4.395915284	-0.626571205
4.398648908	-0.827869542
4.400841061	-0.988412661
4.403033214	-1.148133338
4.405225367	-1.307010604
4.407638573	-1.480893997
4.410051779	-1.653685879
4.412058066	-1.796474173
